{
	"asset":{
		"generator":"Khronos glTF Blender I/O v3.5.30",
		"version":"2.0"
	},
	"scene":0,
	"scenes":[
		{
			"name":"Scene",
			"nodes":[
				0,
				1
			]
		}
	],
	"nodes":[
		{
			"mesh":0,
			"name":"ground-road-curve-45",
			"scale":[
				32,
				1,
				32
			],
			"translation":[
				-32,
				0,
				-32
			]
		},
		{
			"mesh":1,
			"name":"ground-road-curve-45-col",
			"scale":[
				32,
				1,
				32
			],
			"translation":[
				-32,
				0,
				-32
			]
		}
	],
	"meshes":[
		{
			"name":"Plane.002",
			"primitives":[
				{
					"attributes":{
						"POSITION":0,
						"TEXCOORD_0":1,
						"NORMAL":2
					},
					"indices":3
				}
			]
		},
		{
			"name":"Plane.001",
			"primitives":[
				{
					"attributes":{
						"POSITION":4,
						"TEXCOORD_0":5,
						"NORMAL":6
					},
					"indices":7
				}
			]
		}
	],
	"accessors":[
		{
			"bufferView":0,
			"componentType":5126,
			"count":24,
			"max":[
				2,
				2.7273420855067343e-08,
				1
			],
			"min":[
				-1,
				-2.7273369340719e-08,
				-2.4142136573791504
			],
			"type":"VEC3"
		},
		{
			"bufferView":1,
			"componentType":5126,
			"count":24,
			"type":"VEC2"
		},
		{
			"bufferView":2,
			"componentType":5126,
			"count":24,
			"type":"VEC3"
		},
		{
			"bufferView":3,
			"componentType":5123,
			"count":66,
			"type":"SCALAR"
		},
		{
			"bufferView":4,
			"componentType":5126,
			"count":144,
			"max":[
				2,
				2.7273420855067343e-08,
				1
			],
			"min":[
				-1,
				-2,
				-2.4142136573791504
			],
			"type":"VEC3"
		},
		{
			"bufferView":5,
			"componentType":5126,
			"count":144,
			"type":"VEC2"
		},
		{
			"bufferView":6,
			"componentType":5126,
			"count":144,
			"type":"VEC3"
		},
		{
			"bufferView":7,
			"componentType":5123,
			"count":276,
			"type":"SCALAR"
		}
	],
	"bufferViews":[
		{
			"buffer":0,
			"byteLength":288,
			"byteOffset":0,
			"target":34962
		},
		{
			"buffer":0,
			"byteLength":192,
			"byteOffset":288,
			"target":34962
		},
		{
			"buffer":0,
			"byteLength":288,
			"byteOffset":480,
			"target":34962
		},
		{
			"buffer":0,
			"byteLength":132,
			"byteOffset":768,
			"target":34963
		},
		{
			"buffer":0,
			"byteLength":1728,
			"byteOffset":900,
			"target":34962
		},
		{
			"buffer":0,
			"byteLength":1152,
			"byteOffset":2628,
			"target":34962
		},
		{
			"buffer":0,
			"byteLength":1728,
			"byteOffset":3780,
			"target":34962
		},
		{
			"buffer":0,
			"byteLength":552,
			"byteOffset":5508,
			"target":34963
		}
	],
	"buffers":[
		{
			"byteLength":6060,
			"uri":"data:application/octet-stream;base64,"
		}
	]
}
