{
	"asset":{
		"generator":"Khronos glTF Blender I/O v3.5.30",
		"version":"2.0"
	},
	"scene":0,
	"scenes":[
		{
			"name":"Scene",
			"nodes":[
				0,
				1
			]
		}
	],
	"nodes":[
		{
			"mesh":0,
			"name":"road-camber-45",
			"scale":[
				32,
				1,
				32
			],
			"translation":[
				0,
				0,
				-32
			]
		},
		{
			"mesh":1,
			"name":"road-camber-45-col",
			"scale":[
				32,
				1,
				32
			],
			"translation":[
				0,
				0,
				-32
			]
		}
	],
	"meshes":[
		{
			"name":"Plane.002",
			"primitives":[
				{
					"attributes":{
						"POSITION":0,
						"TEXCOORD_0":1,
						"NORMAL":2
					},
					"indices":3
				}
			]
		},
		{
			"name":"Plane.003",
			"primitives":[
				{
					"attributes":{
						"POSITION":4,
						"TEXCOORD_0":5,
						"NORMAL":6
					},
					"indices":7
				}
			]
		}
	],
	"accessors":[
		{
			"bufferView":0,
			"componentType":5126,
			"count":124,
			"max":[
				0,
				45.25483322143555,
				1
			],
			"min":[
				-2,
				0,
				-1
			],
			"type":"VEC3"
		},
		{
			"bufferView":1,
			"componentType":5126,
			"count":124,
			"type":"VEC2"
		},
		{
			"bufferView":2,
			"componentType":5126,
			"count":124,
			"type":"VEC3"
		},
		{
			"bufferView":3,
			"componentType":5123,
			"count":186,
			"type":"SCALAR"
		},
		{
			"bufferView":4,
			"componentType":5126,
			"count":384,
			"max":[
				0.019558686763048172,
				45.25483322143555,
				1
			],
			"min":[
				-2,
				-1.7909095287322998,
				-1.0197869539260864
			],
			"type":"VEC3"
		},
		{
			"bufferView":5,
			"componentType":5126,
			"count":384,
			"type":"VEC2"
		},
		{
			"bufferView":6,
			"componentType":5126,
			"count":384,
			"type":"VEC3"
		},
		{
			"bufferView":7,
			"componentType":5123,
			"count":756,
			"type":"SCALAR"
		}
	],
	"bufferViews":[
		{
			"buffer":0,
			"byteLength":1488,
			"byteOffset":0,
			"target":34962
		},
		{
			"buffer":0,
			"byteLength":992,
			"byteOffset":1488,
			"target":34962
		},
		{
			"buffer":0,
			"byteLength":1488,
			"byteOffset":2480,
			"target":34962
		},
		{
			"buffer":0,
			"byteLength":372,
			"byteOffset":3968,
			"target":34963
		},
		{
			"buffer":0,
			"byteLength":4608,
			"byteOffset":4340,
			"target":34962
		},
		{
			"buffer":0,
			"byteLength":3072,
			"byteOffset":8948,
			"target":34962
		},
		{
			"buffer":0,
			"byteLength":4608,
			"byteOffset":12020,
			"target":34962
		},
		{
			"buffer":0,
			"byteLength":1512,
			"byteOffset":16628,
			"target":34963
		}
	],
	"buffers":[
		{
			"byteLength":18140,
			"uri":"data:application/octet-stream;base64,"
		}
	]
}
