{
	"asset":{
		"generator":"Khronos glTF Blender I/O v3.5.30",
		"version":"2.0"
	},
	"scene":0,
	"scenes":[
		{
			"name":"Scene",
			"nodes":[
				0,
				1
			]
		}
	],
	"nodes":[
		{
			"mesh":0,
			"name":"road-camber-225",
			"scale":[
				32,
				1,
				32
			],
			"translation":[
				0,
				0,
				-32
			]
		},
		{
			"mesh":1,
			"name":"road-camber-225-col",
			"scale":[
				32,
				1,
				32
			],
			"translation":[
				0,
				0,
				-32
			]
		}
	],
	"meshes":[
		{
			"name":"Plane.002",
			"primitives":[
				{
					"attributes":{
						"POSITION":0,
						"TEXCOORD_0":1,
						"NORMAL":2
					},
					"indices":3
				}
			]
		},
		{
			"name":"Plane.004",
			"primitives":[
				{
					"attributes":{
						"POSITION":4,
						"TEXCOORD_0":5,
						"NORMAL":6
					},
					"indices":7
				}
			]
		}
	],
	"accessors":[
		{
			"bufferView":0,
			"componentType":5126,
			"count":64,
			"max":[
				0,
				24.49173927307129,
				1
			],
			"min":[
				-2,
				0,
				-1
			],
			"type":"VEC3"
		},
		{
			"bufferView":1,
			"componentType":5126,
			"count":64,
			"type":"VEC2"
		},
		{
			"bufferView":2,
			"componentType":5126,
			"count":64,
			"type":"VEC3"
		},
		{
			"bufferView":3,
			"componentType":5123,
			"count":96,
			"type":"SCALAR"
		},
		{
			"bufferView":4,
			"componentType":5126,
			"count":204,
			"max":[
				0.01030602864921093,
				24.49173927307129,
				1
			],
			"min":[
				-2,
				-1.9374734163284302,
				-1.011584997177124
			],
			"type":"VEC3"
		},
		{
			"bufferView":5,
			"componentType":5126,
			"count":204,
			"type":"VEC2"
		},
		{
			"bufferView":6,
			"componentType":5126,
			"count":204,
			"type":"VEC3"
		},
		{
			"bufferView":7,
			"componentType":5123,
			"count":396,
			"type":"SCALAR"
		}
	],
	"bufferViews":[
		{
			"buffer":0,
			"byteLength":768,
			"byteOffset":0,
			"target":34962
		},
		{
			"buffer":0,
			"byteLength":512,
			"byteOffset":768,
			"target":34962
		},
		{
			"buffer":0,
			"byteLength":768,
			"byteOffset":1280,
			"target":34962
		},
		{
			"buffer":0,
			"byteLength":192,
			"byteOffset":2048,
			"target":34963
		},
		{
			"buffer":0,
			"byteLength":2448,
			"byteOffset":2240,
			"target":34962
		},
		{
			"buffer":0,
			"byteLength":1632,
			"byteOffset":4688,
			"target":34962
		},
		{
			"buffer":0,
			"byteLength":2448,
			"byteOffset":6320,
			"target":34962
		},
		{
			"buffer":0,
			"byteLength":792,
			"byteOffset":8768,
			"target":34963
		}
	],
	"buffers":[
		{
			"byteLength":9560,
			"uri":"data:application/octet-stream;base64,"
		}
	]
}
