{
	"asset":{
		"generator":"Khronos glTF Blender I/O v3.5.30",
		"version":"2.0"
	},
	"scene":0,
	"scenes":[
		{
			"name":"Scene",
			"nodes":[
				0
			]
		}
	],
	"nodes":[
		{
			"mesh":0,
			"name":"road-camber-15",
			"scale":[
				32,
				1,
				32
			],
			"translation":[
				0,
				0,
				-32
			]
		}
	],
	"meshes":[
		{
			"name":"Plane.002",
			"primitives":[
				{
					"attributes":{
						"POSITION":0,
						"TEXCOORD_0":1,
						"NORMAL":2
					},
					"indices":3
				}
			]
		}
	],
	"accessors":[
		{
			"bufferView":0,
			"componentType":5126,
			"count":2154,
			"max":[
				0.00628776615485549,
				16.56441879272461,
				1
			],
			"min":[
				-2,
				-1.9794057607650757,
				-1.0063636302947998
			],
			"type":"VEC3"
		},
		{
			"bufferView":1,
			"componentType":5126,
			"count":2154,
			"type":"VEC2"
		},
		{
			"bufferView":2,
			"componentType":5126,
			"count":2154,
			"type":"VEC3"
		},
		{
			"bufferView":3,
			"componentType":5123,
			"count":3444,
			"type":"SCALAR"
		}
	],
	"bufferViews":[
		{
			"buffer":0,
			"byteLength":25848,
			"byteOffset":0,
			"target":34962
		},
		{
			"buffer":0,
			"byteLength":17232,
			"byteOffset":25848,
			"target":34962
		},
		{
			"buffer":0,
			"byteLength":25848,
			"byteOffset":43080,
			"target":34962
		},
		{
			"buffer":0,
			"byteLength":6888,
			"byteOffset":68928,
			"target":34963
		}
	],
	"buffers":[
		{
			"byteLength":75816,
			"uri":"data:application/octet-stream;base64,"
		}
	]
}
