{
	"asset":{
		"generator":"Khronos glTF Blender I/O v3.5.30",
		"version":"2.0"
	},
	"scene":0,
	"scenes":[
		{
			"name":"Scene",
			"nodes":[
				0
			]
		}
	],
	"nodes":[
		{
			"mesh":0,
			"name":"mod-road-ramp-15-curve"
		}
	],
	"meshes":[
		{
			"name":"Plane.001",
			"primitives":[
				{
					"attributes":{
						"POSITION":0,
						"TEXCOORD_0":1,
						"NORMAL":2
					},
					"indices":3
				}
			]
		}
	],
	"accessors":[
		{
			"bufferView":0,
			"componentType":5126,
			"count":184,
			"max":[
				2.310614824295044,
				8.623370170593262,
				0
			],
			"min":[
				-64.00001525878906,
				-1.9829951524734497,
				-65.992919921875
			],
			"type":"VEC3"
		},
		{
			"bufferView":1,
			"componentType":5126,
			"count":184,
			"type":"VEC2"
		},
		{
			"bufferView":2,
			"componentType":5126,
			"count":184,
			"type":"VEC3"
		},
		{
			"bufferView":3,
			"componentType":5123,
			"count":276,
			"type":"SCALAR"
		}
	],
	"bufferViews":[
		{
			"buffer":0,
			"byteLength":2208,
			"byteOffset":0,
			"target":34962
		},
		{
			"buffer":0,
			"byteLength":1472,
			"byteOffset":2208,
			"target":34962
		},
		{
			"buffer":0,
			"byteLength":2208,
			"byteOffset":3680,
			"target":34962
		},
		{
			"buffer":0,
			"byteLength":552,
			"byteOffset":5888,
			"target":34963
		}
	],
	"buffers":[
		{
			"byteLength":6440,
			"uri":"data:application/octet-stream;base64,"
		}
	]
}
