{
	"asset":{
		"generator":"Khronos glTF Blender I/O v3.5.30",
		"version":"2.0"
	},
	"scene":0,
	"scenes":[
		{
			"name":"Scene",
			"nodes":[
				0
			]
		}
	],
	"nodes":[
		{
			"mesh":0,
			"name":"ground-road-curve-15",
			"scale":[
				32,
				1,
				32
			],
			"translation":[
				-32,
				0,
				-32
			]
		}
	],
	"meshes":[
		{
			"name":"Plane.002",
			"primitives":[
				{
					"attributes":{
						"POSITION":0,
						"TEXCOORD_0":1,
						"NORMAL":2
					},
					"indices":3
				}
			]
		}
	],
	"accessors":[
		{
			"bufferView":0,
			"componentType":5126,
			"count":204,
			"max":[
				1.3333333730697632,
				6.954524955915531e-09,
				1
			],
			"min":[
				-1,
				-2,
				-1.765366792678833
			],
			"type":"VEC3"
		},
		{
			"bufferView":1,
			"componentType":5126,
			"count":204,
			"type":"VEC2"
		},
		{
			"bufferView":2,
			"componentType":5126,
			"count":204,
			"type":"VEC3"
		},
		{
			"bufferView":3,
			"componentType":5123,
			"count":396,
			"type":"SCALAR"
		}
	],
	"bufferViews":[
		{
			"buffer":0,
			"byteLength":2448,
			"byteOffset":0,
			"target":34962
		},
		{
			"buffer":0,
			"byteLength":1632,
			"byteOffset":2448,
			"target":34962
		},
		{
			"buffer":0,
			"byteLength":2448,
			"byteOffset":4080,
			"target":34962
		},
		{
			"buffer":0,
			"byteLength":792,
			"byteOffset":6528,
			"target":34963
		}
	],
	"buffers":[
		{
			"byteLength":7320,
			"uri":"data:application/octet-stream;base64,"
		}
	]
}
