{
	"asset":{
		"generator":"Khronos glTF Blender I/O v3.5.30",
		"version":"2.0"
	},
	"scene":0,
	"scenes":[
		{
			"name":"Scene",
			"nodes":[
				0
			]
		}
	],
	"nodes":[
		{
			"mesh":0,
			"name":"road-camber-45",
			"scale":[
				32,
				1,
				32
			],
			"translation":[
				0,
				0,
				-32
			]
		}
	],
	"meshes":[
		{
			"name":"Plane.002",
			"primitives":[
				{
					"attributes":{
						"POSITION":0,
						"TEXCOORD_0":1,
						"NORMAL":2
					},
					"indices":3
				}
			]
		}
	],
	"accessors":[
		{
			"bufferView":0,
			"componentType":5126,
			"count":2170,
			"max":[
				0.015586047433316708,
				45.25483322143555,
				1.0005457401275635
			],
			"min":[
				-2,
				-1.992899775505066,
				-1.0144373178482056
			],
			"type":"VEC3"
		},
		{
			"bufferView":1,
			"componentType":5126,
			"count":2170,
			"type":"VEC2"
		},
		{
			"bufferView":2,
			"componentType":5126,
			"count":2170,
			"type":"VEC3"
		},
		{
			"bufferView":3,
			"componentType":5123,
			"count":3444,
			"type":"SCALAR"
		}
	],
	"bufferViews":[
		{
			"buffer":0,
			"byteLength":26040,
			"byteOffset":0,
			"target":34962
		},
		{
			"buffer":0,
			"byteLength":17360,
			"byteOffset":26040,
			"target":34962
		},
		{
			"buffer":0,
			"byteLength":26040,
			"byteOffset":43400,
			"target":34962
		},
		{
			"buffer":0,
			"byteLength":6888,
			"byteOffset":69440,
			"target":34963
		}
	],
	"buffers":[
		{
			"byteLength":76328,
			"uri":"data:application/octet-stream;base64,"
		}
	]
}
