{
	"asset":{
		"generator":"Khronos glTF Blender I/O v3.5.30",
		"version":"2.0"
	},
	"scene":0,
	"scenes":[
		{
			"name":"Scene",
			"nodes":[
				0
			]
		}
	],
	"nodes":[
		{
			"mesh":0,
			"name":"road-camber-30",
			"scale":[
				32,
				1,
				32
			],
			"translation":[
				0,
				0,
				-32
			]
		}
	],
	"meshes":[
		{
			"name":"Plane.002",
			"primitives":[
				{
					"attributes":{
						"POSITION":0,
						"TEXCOORD_0":1,
						"NORMAL":2
					},
					"indices":3
				}
			]
		}
	],
	"accessors":[
		{
			"bufferView":0,
			"componentType":5126,
			"count":2160,
			"max":[
				0.01149879489094019,
				32,
				1.0001215934753418
			],
			"min":[
				-2,
				-2.142587423324585,
				-1.003131628036499
			],
			"type":"VEC3"
		},
		{
			"bufferView":1,
			"componentType":5126,
			"count":2160,
			"type":"VEC2"
		},
		{
			"bufferView":2,
			"componentType":5126,
			"count":2160,
			"type":"VEC3"
		},
		{
			"bufferView":3,
			"componentType":5123,
			"count":3444,
			"type":"SCALAR"
		}
	],
	"bufferViews":[
		{
			"buffer":0,
			"byteLength":25920,
			"byteOffset":0,
			"target":34962
		},
		{
			"buffer":0,
			"byteLength":17280,
			"byteOffset":25920,
			"target":34962
		},
		{
			"buffer":0,
			"byteLength":25920,
			"byteOffset":43200,
			"target":34962
		},
		{
			"buffer":0,
			"byteLength":6888,
			"byteOffset":69120,
			"target":34963
		}
	],
	"buffers":[
		{
			"byteLength":76008,
			"uri":"data:application/octet-stream;base64,"
		}
	]
}
