{
	"asset":{
		"generator":"Khronos glTF Blender I/O v3.5.30",
		"version":"2.0"
	},
	"scene":0,
	"scenes":[
		{
			"name":"Scene",
			"nodes":[
				0
			]
		}
	],
	"nodes":[
		{
			"mesh":0,
			"name":"ramp-45-curve"
		}
	],
	"meshes":[
		{
			"name":"Plane",
			"primitives":[
				{
					"attributes":{
						"POSITION":0,
						"TEXCOORD_0":1,
						"NORMAL":2
					},
					"indices":3
				}
			]
		}
	],
	"accessors":[
		{
			"bufferView":0,
			"componentType":5126,
			"count":280,
			"max":[
				7.693931579589844,
				28.714160919189453,
				0.014792025089263916
			],
			"min":[
				-64,
				-2.020334482192993,
				-68.21858978271484
			],
			"type":"VEC3"
		},
		{
			"bufferView":1,
			"componentType":5126,
			"count":280,
			"type":"VEC2"
		},
		{
			"bufferView":2,
			"componentType":5126,
			"count":280,
			"type":"VEC3"
		},
		{
			"bufferView":3,
			"componentType":5123,
			"count":420,
			"type":"SCALAR"
		}
	],
	"bufferViews":[
		{
			"buffer":0,
			"byteLength":3360,
			"byteOffset":0,
			"target":34962
		},
		{
			"buffer":0,
			"byteLength":2240,
			"byteOffset":3360,
			"target":34962
		},
		{
			"buffer":0,
			"byteLength":3360,
			"byteOffset":5600,
			"target":34962
		},
		{
			"buffer":0,
			"byteLength":840,
			"byteOffset":8960,
			"target":34963
		}
	],
	"buffers":[
		{
			"byteLength":9800,
			"uri":"data:application/octet-stream;base64,"
		}
	]
}
