{
	"asset":{
		"generator":"Khronos glTF Blender I/O v3.5.30",
		"version":"2.0"
	},
	"scene":0,
	"scenes":[
		{
			"name":"Scene",
			"nodes":[
				0
			]
		}
	],
	"nodes":[
		{
			"mesh":0,
			"name":"ground-ramp-90-curve",
			"scale":[
				32,
				1,
				32
			],
			"translation":[
				0,
				0,
				-32
			]
		}
	],
	"meshes":[
		{
			"name":"Plane.002",
			"primitives":[
				{
					"attributes":{
						"POSITION":0,
						"TEXCOORD_0":1,
						"NORMAL":2
					},
					"indices":3
				}
			]
		}
	],
	"accessors":[
		{
			"bufferView":0,
			"componentType":5126,
			"count":536,
			"max":[
				0.5430371761322021,
				64.85258483886719,
				1.0000845193862915
			],
			"min":[
				-2,
				-1.633160948753357,
				-1.035568118095398
			],
			"type":"VEC3"
		},
		{
			"bufferView":1,
			"componentType":5126,
			"count":536,
			"type":"VEC2"
		},
		{
			"bufferView":2,
			"componentType":5126,
			"count":536,
			"type":"VEC3"
		},
		{
			"bufferView":3,
			"componentType":5123,
			"count":804,
			"type":"SCALAR"
		}
	],
	"bufferViews":[
		{
			"buffer":0,
			"byteLength":6432,
			"byteOffset":0,
			"target":34962
		},
		{
			"buffer":0,
			"byteLength":4288,
			"byteOffset":6432,
			"target":34962
		},
		{
			"buffer":0,
			"byteLength":6432,
			"byteOffset":10720,
			"target":34962
		},
		{
			"buffer":0,
			"byteLength":1608,
			"byteOffset":17152,
			"target":34963
		}
	],
	"buffers":[
		{
			"byteLength":18760,
			"uri":"data:application/octet-stream;base64,"
		}
	]
}
